<?xml version="1.0" standalone="no"?><!DOCTYPE svg PUBLIC "-//W3C//DTD SVG 1.1//EN" "http://www.w3.org/Graphics/SVG/1.1/DTD/svg11.dtd"><svg t="1639584668799" class="icon" viewBox="0 0 1024 1024" version="1.1" xmlns="http://www.w3.org/2000/svg" p-id="4554" xmlns:xlink="http://www.w3.org/1999/xlink" width="200" height="200"><defs><style type="text/css"></style></defs><path d="M0 0h1024v1024H0z" fill="#FFFFFF" p-id="4555"></path><path d="M576 74.666667A32 32 0 0 1 608 106.666667v66.624l4.672 1.322666c23.210667 6.912 45.610667 16.213333 66.837333 27.733334l4.074667 2.282666 47.146667-47.146666a32 32 0 0 1 42.816-2.176l2.432 2.197333 90.517333 90.517333a32 32 0 0 1 0 45.226667l-47.146667 47.146667 2.325334 4.117333c11.498667 21.226667 20.8 43.605333 27.733333 66.837333l1.28 4.650667H917.333333a32 32 0 0 1 31.850667 28.928L949.333333 448v128a32 32 0 0 1-32 32h-66.645333l-1.301333 4.672a349.994667 349.994667 0 0 1-27.733334 66.837333l-2.304 4.074667 47.146667 47.146667a32 32 0 0 1 2.197333 42.816l-2.197333 2.432-90.517333 90.517333a32 32 0 0 1-45.226667 0l-47.168-47.146667-4.074667 2.304c-21.226667 11.52-43.626667 20.821333-66.837333 27.733334l-4.672 1.301333V917.333333a32 32 0 0 1-28.928 31.850667L576 949.333333h-128a32 32 0 0 1-32-32v-66.645333l-4.650667-1.28a349.994667 349.994667 0 0 1-66.837333-27.733333l-4.117333-2.325334-47.146667 47.146667a32 32 0 0 1-42.794667 2.197333l-2.432-2.197333-90.517333-90.517333a32 32 0 0 1 0-45.226667l47.125333-47.168-2.282666-4.074667a349.994667 349.994667 0 0 1-27.733334-66.837333l-1.322666-4.672H106.666667a32 32 0 0 1-31.850667-28.928L74.666667 576v-128A32 32 0 0 1 106.666667 416h66.624l1.322666-4.650667c6.912-23.232 16.213333-45.610667 27.733334-66.837333l2.282666-4.117333-47.146666-47.146667a32 32 0 0 1-2.176-42.794667l2.197333-2.432 90.517333-90.517333a32 32 0 0 1 45.226667 0l47.146667 47.125333 4.117333-2.304c21.226667-11.498667 43.605333-20.8 66.837333-27.733333l4.650667-1.301333V106.666667a32 32 0 0 1 28.928-31.850667L448 74.666667z m-64 277.333333a160 160 0 1 0 0 320 160 160 0 0 0 0-320z m0 64a96 96 0 1 1 0 192 96 96 0 0 1 0-192z" fill="#111111" p-id="4556"></path></svg>